<?xml version="1.0" encoding="UTF-8" standalone="no"?>
<!-- Created with Inkscape (http://www.inkscape.org/) -->

<svg
   version="1.1"
   id="svg1"
   width="24"
   height="24.000488"
   viewBox="0 0 24 24.000488"
   xmlns="http://www.w3.org/2000/svg"
   xmlns:svg="http://www.w3.org/2000/svg">
  <defs
     id="defs1" />
  <g
     id="g1"
     transform="translate(-1524,-1523.9491)">
    <path
       d="m 1535.7274,1547.8877 c -0.04,-0.048 -0.06,-0.908 -0.07,-2.8894 -0.011,-2.4486 -0.023,-2.8266 -0.089,-2.8595 -0.042,-0.021 -0.4303,-0.075 -0.8631,-0.12 -2.0143,-0.2095 -3.5419,-0.7688 -4.4806,-1.6404 l -0.2412,-0.2239 -6e-4,0.2723 c 0,0.8513 -0.2338,2.1715 -0.5102,2.9019 -0.1286,0.3402 -0.8516,1.7707 -0.9954,1.9696 -0.1364,0.1888 -0.301,0.2164 -0.4513,0.076 -0.068,-0.064 -0.1241,-0.1565 -0.1241,-0.2058 0,-0.05 0.2045,-0.5061 0.4546,-1.0152 0.6496,-1.3225 0.8108,-1.8772 0.9155,-3.1504 0.029,-0.3546 0.051,-3.3508 0.052,-7.2058 0,-4.2598 0.02,-6.6776 0.053,-6.8208 0.2115,-0.9135 1.17,-1.7845 2.5635,-2.3296 2.6222,-1.0256 6.2714,-0.9092 8.6628,0.2762 0.8206,0.4067 1.3924,0.8821 1.7059,1.4182 0.3094,0.5291 0.2907,0.057 0.2915,7.3801 0,6.9239 0.011,7.3378 0.2073,8.3436 0.1261,0.646 0.307,1.1247 0.8144,2.1552 0.2614,0.5311 0.4753,0.9735 0.4753,0.9834 0,0.054 -0.2911,0.2746 -0.3623,0.2746 -0.1515,0 -0.3822,-0.3327 -0.7947,-1.1461 -0.4444,-0.8765 -0.675,-1.5005 -0.7939,-2.1489 -0.072,-0.3898 -0.1797,-1.4507 -0.1809,-1.7743 0,-0.1768 -0.099,-0.1789 -0.2583,-0.01 -0.2976,0.3229 -1.2043,0.8177 -2.0114,1.0975 -0.8615,0.2986 -2.3954,0.5894 -3.1098,0.5894 -0.1773,0 -0.2544,0.022 -0.2767,0.08 -0.017,0.044 -0.031,1.3402 -0.031,2.8806 0,2.717 -0.01,2.802 -0.098,2.8528 -0.1381,0.074 -0.3864,0.065 -0.4536,-0.015 z m -0.083,-11.7087 c 0,-4.5963 -0.01,-5.2328 -0.076,-5.2669 -0.042,-0.021 -0.3884,-0.064 -0.7702,-0.095 -0.9567,-0.077 -2.3125,-0.3653 -2.7218,-0.5789 -0.092,-0.048 -0.1875,-0.074 -0.2131,-0.058 -0.028,0.017 -0.043,2.1112 -0.037,5.2214 l 0.01,5.1927 0.2031,0.1155 c 0.5675,0.3228 2.5141,0.7324 3.3509,0.7052 l 0.2539,-0.01 z m 1.6835,5.1755 c 0.3284,-0.043 0.8151,-0.1246 1.0815,-0.1816 0.5444,-0.1166 1.5659,-0.4313 1.6687,-0.5142 0.055,-0.045 0.064,-0.973 0.051,-5.2236 -0.01,-2.8432 -0.033,-5.1855 -0.052,-5.205 -0.02,-0.02 -0.2595,0.035 -0.5331,0.1215 -0.8761,0.2768 -1.5486,0.4013 -2.9217,0.5406 l -0.2919,0.03 v 1.0456 c 0,0.5751 -0.014,2.9078 -0.029,5.1836 -0.014,2.276 -0.014,4.1704 0,4.2097 0.036,0.094 0.2774,0.092 1.0289,-0.01 z m 4.0811,-1.5857 c 0.1621,-0.178 0.3537,-0.4316 0.4258,-0.5636 l 0.1311,-0.2398 -0.013,-4.9989 -0.013,-4.9987 -0.2792,0.2545 c -0.1536,0.1401 -0.4106,0.3395 -0.5712,0.4431 l -0.2919,0.1883 v 5.2107 5.2108 l 0.1583,-0.092 c 0.087,-0.051 0.2909,-0.237 0.4531,-0.415 z m -10.2143,-4.6445 c 0,-2.8021 -0.01,-5.135 -0.024,-5.1842 -0.015,-0.05 -0.1993,-0.2052 -0.4101,-0.347 -0.2107,-0.1416 -0.4718,-0.3372 -0.5801,-0.4347 l -0.1969,-0.1772 v 4.9239 c 0,2.8371 0.02,4.9925 0.047,5.0856 0.08,0.2765 0.4112,0.7186 0.7343,0.9789 0.17,0.1371 0.3359,0.2492 0.3686,0.2492 0.045,0 0.06,-1.2422 0.062,-5.0945 z m 6.2875,-4.9951 c 1.6823,-0.2175 3.02,-0.726 3.7867,-1.439 0.2036,-0.1894 0.4379,-0.4661 0.5206,-0.6149 0.1298,-0.2334 0.1503,-0.3227 0.1492,-0.6499 0,-0.4777 -0.1612,-0.8097 -0.5835,-1.2134 -1.624,-1.5523 -5.6555,-2.0783 -8.689,-1.1338 -0.569,0.1773 -1.3681,0.5667 -1.7556,0.8559 -0.374,0.2788 -0.7924,0.8129 -0.8794,1.1222 -0.3689,1.3124 1.449,2.6419 4.1662,3.0468 0.8249,0.123 2.4368,0.1357 3.2848,0.026 z"
       style="fill:#a2afc1;fill-opacity:1;stroke-width:0.050669"
       id="path1-6" />
    <rect
       style="fill:#ff0000;fill-opacity:0;stroke-width:0.045294"
       id="rect10"
       width="24"
       height="23.903227"
       x="1524"
       y="1523.9998" />
  </g>
</svg>
