<?xml version="1.0" encoding="UTF-8" standalone="no"?>
<!-- Created with Inkscape (http://www.inkscape.org/) -->

<svg
   version="1.1"
   id="svg1"
   width="24"
   height="24"
   viewBox="0 0 24 24"
   xmlns="http://www.w3.org/2000/svg"
   xmlns:svg="http://www.w3.org/2000/svg">
  <defs
     id="defs1" />
  <g
     id="g1"
     transform="translate(-1523.9875,-1524)">
    <rect
       style="fill:#ff0000;fill-opacity:0;stroke-width:0.0607315"
       id="rect6"
       width="23.979673"
       height="24"
       x="1524"
       y="1524" />
    <path
       d="m 1532.8422,1547.7027 c -0.2237,-0.086 -0.2392,-0.3741 -0.2257,-4.1976 0.01,-1.7375 -0.015,-3.2147 -0.047,-3.2824 -0.043,-0.093 -0.2247,-0.1358 -0.7348,-0.1743 -2.9178,-0.2197 -5.4587,-1.1556 -6.7945,-2.5026 -0.9646,-0.9729 -1.2509,-1.9848 -0.9218,-3.258 0.04,-0.1534 0.1436,-0.3698 0.231,-0.481 l 0.1589,-0.2021 -0.2529,-0.514 c -0.2289,-0.4654 -0.2532,-0.5807 -0.2554,-1.2182 0,-0.6604 0.016,-0.7403 0.2854,-1.2874 0.4911,-0.9946 1.5475,-1.8549 3.0709,-2.501 1.1366,-0.482 3.1956,-0.9212 4.9177,-1.0489 l 0.2694,-0.02 0.048,-1.3321 c 0.026,-0.7327 0.065,-1.3493 0.086,-1.3704 0.068,-0.068 0.7608,-0.055 0.8323,0.017 0.038,0.038 0.079,0.6582 0.091,1.3777 l 0.021,1.308 0.7315,0.059 c 3.6753,0.2949 6.6181,1.648 7.5317,3.463 0.4583,0.911 0.4713,1.7754 0.04,2.6282 l -0.1927,0.3805 0.218,0.472 c 0.1931,0.4185 0.2177,0.5592 0.2177,1.2425 0,0.6701 -0.026,0.8258 -0.2002,1.1944 -0.6537,1.3824 -2.3767,2.4953 -4.889,3.1573 -0.7395,0.1948 -2.3699,0.4639 -2.8202,0.4653 -0.1807,8e-4 -0.4055,0.022 -0.4996,0.047 l -0.171,0.046 -0.022,3.7223 c -0.012,2.0473 -0.039,3.7376 -0.06,3.7562 -0.089,0.078 -0.5124,0.1124 -0.6639,0.054 z m 1.9344,-8.7087 c 1.6448,-0.1879 3.0021,-0.5575 4.1574,-1.1319 1.1814,-0.5873 1.7461,-1.0802 2.083,-1.818 0.1737,-0.3807 0.2004,-0.5296 0.1751,-0.9784 -0.017,-0.2911 -0.057,-0.5562 -0.09,-0.5892 -0.033,-0.033 -0.1428,-0.01 -0.2442,0.054 -1.4797,0.9111 -2.1124,1.2051 -3.4042,1.5812 -2.1405,0.6234 -4.9919,0.7374 -7.4124,0.2965 -1.6094,-0.2931 -3.4339,-1.0008 -4.4407,-1.7223 -0.5186,-0.3716 -0.5602,-0.3434 -0.6216,0.4219 -0.05,0.6151 0.178,1.1474 0.719,1.6832 1.2226,1.2107 2.9582,1.8735 5.8446,2.232 0.5141,0.063 2.5847,0.046 3.2337,-0.028 z m -0.1743,-3.3886 c 3.2028,-0.3039 5.7223,-1.4604 6.4119,-2.943 0.5113,-1.0993 -0.053,-2.2402 -1.5463,-3.1282 -0.7618,-0.453 -1.762,-0.8405 -2.7195,-1.0534 -0.8874,-0.1973 -2.9752,-0.4566 -3.0926,-0.384 -0.086,0.053 -0.095,0.4218 -0.014,0.5464 0.031,0.048 0.3433,0.1251 0.6939,0.172 1.2025,0.1608 2.3696,0.8058 2.7021,1.4933 0.4611,0.9533 -0.01,1.8793 -1.28,2.5174 -1.4826,0.7446 -4.3848,0.6311 -5.7157,-0.2237 -0.6683,-0.4292 -1.0234,-0.9817 -1.0179,-1.5842 0.01,-0.7441 0.5042,-1.3688 1.447,-1.8174 0.4529,-0.2155 1.435,-0.4515 1.8784,-0.4515 0.2801,0 0.4136,-0.3329 0.2422,-0.6034 -0.1408,-0.2223 -2.9674,0.2027 -4.2826,0.6438 -2.032,0.6815 -3.3491,1.901 -3.3491,3.1012 0,0.6715 0.5683,1.5086 1.4244,2.0981 1.1788,0.8117 3.2009,1.4422 5.2737,1.6443 0.6166,0.061 2.1731,0.046 2.9439,-0.027 z m -0.096,-3.4416 c 0.6984,-0.1673 1.2565,-0.4452 1.5377,-0.7658 0.2731,-0.3114 0.2608,-0.4767 -0.062,-0.8213 -0.3465,-0.3702 -1.5337,-0.8259 -2.1518,-0.8259 -0.2289,0 -0.2304,0 -0.2624,0.5061 -0.034,0.5367 -0.1087,0.6464 -0.4416,0.6484 -0.3226,0 -0.468,-0.2056 -0.468,-0.6682 0,-0.5072 -0.068,-0.5455 -0.7597,-0.427 -0.5931,0.1017 -1.5542,0.5556 -1.7773,0.8395 -0.2753,0.3503 -0.1944,0.5815 0.3655,1.0448 0.7071,0.5848 2.6099,0.8071 4.0193,0.4694 z m 11.4155,7.935 c -0.1178,-0.18 -0.1364,-0.3955 -0.1355,-1.5771 v -1.3685 l -0.2319,0.2174 c -0.3556,0.3334 -0.4813,0.3489 -0.7388,0.091 -0.2,-0.2002 -0.2159,-0.2498 -0.1427,-0.443 0.1438,-0.3803 1.0569,-1.9795 1.2857,-2.2523 0.4037,-0.4812 0.61,-0.2932 1.5533,1.4165 0.2566,0.4652 0.4667,0.9026 0.4667,0.9719 0,0.131 -0.3561,0.5325 -0.4722,0.5325 -0.036,0 -0.2029,-0.1235 -0.3697,-0.2743 l -0.3034,-0.2744 -0.024,1.4371 c -0.023,1.4037 -0.028,1.4406 -0.2059,1.5843 -0.26,0.2106 -0.5198,0.1872 -0.6826,-0.062 z m -0.01,-7.8282 c -0.1354,-0.1397 -0.2461,-0.2742 -0.2461,-0.2987 0,-0.024 -0.2252,-0.4373 -0.5004,-0.9171 -0.5266,-0.918 -0.5784,-1.1134 -0.3761,-1.4223 0.1709,-0.2611 0.4645,-0.2465 0.7573,0.038 l 0.2347,0.2276 v -1.419 c 0,-1.5838 0.031,-1.6864 0.5075,-1.6729 0.4682,0.014 0.493,0.097 0.4971,1.6735 0,0.781 0.024,1.441 0.051,1.4665 0.025,0.025 0.1453,-0.077 0.2658,-0.2284 0.2384,-0.2989 0.4354,-0.3423 0.7027,-0.155 0.3255,0.2283 0.2688,0.4041 -0.6151,1.9029 -0.6821,1.157 -0.8404,1.2566 -1.2775,0.8052 z"
       style="fill:#a2afc1;fill-opacity:1;stroke-width:0.0770229"
       id="path1-2" />
  </g>
</svg>
