<?xml version="1.0" encoding="UTF-8" standalone="no"?>
<!-- Created with Inkscape (http://www.inkscape.org/) -->

<svg
   version="1.1"
   id="svg1"
   width="24"
   height="24"
   viewBox="0 0 24 24"
   xmlns="http://www.w3.org/2000/svg"
   xmlns:svg="http://www.w3.org/2000/svg">
  <defs
     id="defs1" />
  <g
     id="g1"
     transform="translate(-1523.9998,-1524)">
    <rect
       style="fill:#ff0000;fill-opacity:0;stroke-width:0.0607565"
       id="rect4"
       width="23.99946"
       height="24"
       x="1524"
       y="1524" />
    <path
       d="m 1530.9668,1545.0606 c -0.016,-0.043 -0.036,-1.8828 -0.045,-4.0899 l -0.016,-4.0127 -0.4012,-0.045 c -2.14,-0.2379 -3.0785,-0.4696 -4.2191,-1.0416 -0.7987,-0.4004 -1.0633,-0.5887 -1.5025,-1.0678 -2.1565,-2.3536 0.3294,-5.0314 5.135,-5.5315 0.3737,-0.039 0.7485,-0.091 0.8334,-0.1142 l 0.1544,-0.044 0.031,-1.007 c 0.028,-0.9051 0.043,-1.0158 0.1507,-1.0945 0.1664,-0.1215 0.4277,-0.1093 0.5497,0.025 0.087,0.095 0.1023,0.2683 0.1023,1.1046 0,1.1125 -0.021,1.0665 0.4755,1.0665 0.4034,0 1.491,0.1667 2.2233,0.3408 1.6851,0.4005 3.0957,1.201 3.7343,2.1193 0.1435,0.2065 0.2169,0.2616 0.3183,0.2395 0.073,-0.016 0.6598,-0.1707 1.3048,-0.3443 3.6213,-0.9738 7.3023,-1.9344 7.9386,-2.0711 0.1394,-0.03 0.1679,-0.01 0.2239,0.1747 0.089,0.2888 0.032,0.5267 -0.1419,0.5927 -0.079,0.03 -0.7627,0.222 -1.5199,0.4264 -3.3108,0.8945 -8.6776,2.3512 -8.8534,2.4032 -0.2849,0.084 -0.4562,0.1879 -0.4562,0.2768 0,0.092 -0.278,0.364 -0.4743,0.4648 -0.4987,0.2563 -1.1925,-0.2343 -1.1925,-0.8432 0,-0.4574 0.2165,-0.7494 0.6513,-0.8778 0.2238,-0.066 0.2879,-0.058 0.6104,0.078 0.2799,0.118 0.4086,0.1413 0.5756,0.1034 0.4333,-0.098 0.4152,-0.189 -0.1316,-0.6649 -0.6389,-0.5561 -1.8641,-1.1032 -3.002,-1.3408 -0.6089,-0.1272 -2.1777,-0.2783 -2.2424,-0.2158 -0.028,0.027 -0.042,0.1425 -0.031,0.2573 0.02,0.2084 0.02,0.2085 0.4213,0.2503 0.9329,0.098 2.0336,0.6794 2.3152,1.2243 0.4868,0.9412 -0.3284,1.9633 -1.846,2.3153 -0.478,0.1108 -1.8333,0.1321 -2.383,0.037 -0.9821,-0.1694 -1.8003,-0.6562 -2.1042,-1.252 -0.4923,-0.9646 0.5016,-2.0076 2.1941,-2.3028 0.299,-0.052 0.5539,-0.095 0.5663,-0.095 0.012,0 0.023,-0.098 0.023,-0.216 v -0.2161 h -0.4165 c -2.2345,0 -4.6305,0.9498 -5.4285,2.15 -0.2,0.3005 -0.2363,0.409 -0.2567,0.7674 -0.021,0.3631 0,0.4623 0.1503,0.7619 0.5822,1.1506 2.6421,2.0795 5.1181,2.3078 3.0837,0.2844 6.3174,-0.5945 7.3836,-2.0067 0.3478,-0.4606 0.5195,-0.4931 0.8247,-0.1556 0.1185,0.1308 0.1185,0.1346 0,0.3556 -0.6996,1.2988 -2.9739,2.341 -5.7075,2.6151 -0.3906,0.039 -0.7447,0.081 -0.7872,0.093 -0.061,0.017 -0.078,0.8706 -0.078,4.0022 v 3.9804 l -0.1371,0.096 c -0.1645,0.1152 -0.5956,0.1279 -0.6366,0.019 z m 1.7748,-11.8321 c 0.4839,-0.1609 0.9599,-0.4617 1.0525,-0.6652 0.095,-0.208 -0.072,-0.5285 -0.3809,-0.7331 -0.1797,-0.1189 -1.3806,-0.4957 -1.6573,-0.5199 -0.01,0 -0.015,0.1358 -0.015,0.3034 0,0.4578 -0.079,0.6072 -0.3421,0.6567 -0.3161,0.06 -0.4219,-0.066 -0.4605,-0.5469 l -0.031,-0.3836 -0.1852,0.021 c -0.2752,0.031 -1.0842,0.2581 -1.2965,0.3638 -0.3087,0.1538 -0.5864,0.4557 -0.5864,0.6378 0,0.4858 0.888,0.9612 1.9424,1.0396 0.708,0.053 1.4883,-0.017 1.9601,-0.1733 z"
       style="fill:#a2afc1;fill-opacity:1;stroke-width:0.0617354"
       id="path1-18" />
  </g>
</svg>
