<?xml version="1.0" encoding="UTF-8" standalone="no"?>
<!-- Created with Inkscape (http://www.inkscape.org/) -->

<svg
   version="1.1"
   id="svg1"
   width="24.000244"
   height="24.000488"
   viewBox="0 0 24.000244 24.000488"
   xmlns="http://www.w3.org/2000/svg"
   xmlns:svg="http://www.w3.org/2000/svg">
  <defs
     id="defs1" />
  <g
     id="g1"
     transform="translate(-2492.5454,2495.9487)">
    <path
       d="m 2492.644,-2472.1209 c -0.1802,-0.2744 -0.1094,-0.5467 0.1784,-0.6862 0.2294,-0.1113 2.5494,-0.7634 4.8146,-1.3533 1.5849,-0.4127 1.9554,-0.5208 2.0258,-0.591 0.056,-0.056 -0.8694,-3.6962 -1.0866,-4.2725 -0.055,-0.1456 -0.092,-0.1587 -0.3353,-0.1177 -0.7601,0.1281 -1.5879,-0.8804 -1.7551,-2.1382 -0.1202,-0.9045 0.068,-1.49 0.5717,-1.7787 0.3799,-0.2178 1.5973,-0.4938 1.9624,-0.4449 0.5485,0.073 1.0317,0.6509 1.3239,1.5822 0.1553,0.4952 0.1825,1.2217 0.062,1.6551 -0.09,0.322 -0.4759,0.7398 -0.684,0.7398 -0.079,0 -0.158,0.024 -0.1758,0.053 -0.04,0.065 0.1217,0.7328 0.6658,2.747 0.5387,1.9943 0.6347,2.4489 0.55,2.6068 -0.08,0.1498 -0.3433,0.2354 -2.1407,0.6966 -2.1701,0.557 -2.1716,0.5224 0.024,0.5438 1.7502,0.017 1.9636,0.01 2.3936,-0.1217 2.0527,-0.61 3.7315,-3.633 4.4026,-7.9279 0.074,-0.4745 0.1281,-1.3975 0.1518,-2.5951 0.032,-1.6202 0.018,-2.0045 -0.1103,-2.9951 -0.3765,-2.909 -1.1756,-5.1961 -2.3657,-6.7716 -0.7733,-1.0237 -1.5181,-1.5337 -2.4516,-1.6785 -0.4527,-0.07 -0.585,-0.064 -0.9868,0.044 -0.8541,0.2307 -1.6656,0.9101 -2.4203,2.0262 -1.2565,1.8582 -2.0414,4.6838 -2.1846,7.8649 -0.1404,3.1175 0.2573,5.7069 1.2739,8.2941 l 0.4308,1.0966 -0.1939,0.1665 c -0.1343,0.1152 -0.2619,0.16 -0.4141,0.1452 -0.1995,-0.019 -0.2481,-0.077 -0.5203,-0.6176 -0.1652,-0.3278 -0.4132,-0.9433 -0.5512,-1.3677 -1.7164,-5.2761 -1.1935,-11.9492 1.2488,-15.9401 0.8074,-1.3192 2.0282,-2.3402 3.117,-2.6067 0.2625,-0.064 1.7432,-0.086 5.8528,-0.085 4.9078,0 5.5448,0.013 5.9041,0.117 1.6627,0.4792 3.1017,2.1127 4.0738,4.6243 0.7177,1.8544 1.0172,3.4007 1.2164,6.2805 0.1805,2.6084 -0.3794,6.1806 -1.3348,8.5164 -0.8842,2.1616 -2.2305,3.7143 -3.701,4.2683 l -0.4139,0.1559 -9.1525,0.019 -9.1524,0.019 z m 18.5078,-0.8988 c 0.425,-0.1685 0.9937,-0.559 1.4106,-0.9685 0.3293,-0.3235 0.9947,-1.1841 0.9947,-1.2866 0,-0.024 -1.9847,-0.036 -4.4104,-0.026 l -4.4103,0.018 -0.4851,0.7332 c -0.2668,0.4032 -0.686,0.9386 -0.9315,1.1897 -0.2455,0.2511 -0.4464,0.467 -0.4464,0.4799 0,0.013 1.795,0.014 3.9888,0 3.5568,-0.02 4.0214,-0.035 4.2896,-0.1411 z m 3.1178,-3.6134 c 0.6717,-1.54 1.2331,-4.2218 1.2738,-6.0845 l 0.017,-0.7715 h -4.4632 -4.4633 l -0.018,0.2805 c -0.1019,1.5513 -0.3606,3.3761 -0.6433,4.5373 -0.1415,0.5813 -0.5846,1.9287 -0.7134,2.1692 -0.034,0.062 -0.041,0.1335 -0.016,0.1579 0.024,0.024 2.0329,0.044 4.4632,0.044 h 4.4189 z m -15.3701,-3.6592 c 0.2691,-0.075 0.5328,-0.1934 0.586,-0.2636 0.1966,-0.2597 -0.087,-1.5266 -0.4157,-1.8541 -0.1717,-0.1714 -0.4027,-0.1671 -1.0322,0.019 -0.3361,0.099 -0.5392,0.2004 -0.5887,0.2926 -0.1722,0.3211 0.1117,1.4931 0.4484,1.8507 0.1759,0.1869 0.1671,0.1873 1.0022,-0.045 z m 16.6432,-4.1419 c 0.085,0 0.061,-0.7363 -0.057,-1.7553 -0.2155,-1.8592 -0.7101,-3.8838 -1.2293,-5.0324 l -0.1982,-0.4384 h -4.4305 -4.4306 l 0.2044,0.5787 c 0.6648,1.8822 1.0125,3.6433 1.1666,5.9091 0.026,0.3858 0.058,0.7194 0.071,0.7415 0.016,0.028 8.0753,0.025 8.9042,0 z m -1.9856,-8.1816 c 0,-0.1003 -0.6436,-0.931 -0.9933,-1.282 -0.4249,-0.4266 -1.0797,-0.876 -1.4593,-1.0015 -0.3019,-0.1 -8.1608,-0.1729 -8.1608,-0.076 0,0.033 0.1288,0.1848 0.2862,0.3374 0.3521,0.341 0.8792,1.0435 1.221,1.6274 l 0.2567,0.4383 h 4.4247 c 2.4336,0 4.4248,-0.02 4.4248,-0.044 z"
       style="fill:#a2afc1;fill-opacity:1;stroke-width:0.0702127"
       id="path1-3" />
  </g>
</svg>
