<?xml version="1.0" encoding="UTF-8" standalone="no"?>
<!-- Created with Inkscape (http://www.inkscape.org/) -->

<svg
   version="1.1"
   id="svg1"
   width="24"
   height="24"
   viewBox="0 0 24 24"
   xmlns="http://www.w3.org/2000/svg"
   xmlns:svg="http://www.w3.org/2000/svg">
  <defs
     id="defs1" />
  <g
     id="g1"
     transform="translate(-1524,-1523.9996)">
    <rect
       style="fill:#a2afc1;fill-opacity:0;stroke-width:0.0330444"
       id="rect2"
       width="24"
       height="24"
       x="1524"
       y="1523.9996" />
    <path
       d="m 1527.9303,1547.8858 c -0.1801,-0.1791 -0.3103,0.6307 1.2424,-7.7319 0.2237,-1.2041 0.6855,-3.6677 1.0264,-5.4742 0.8204,-4.349 1.3866,-7.3931 1.5747,-8.4673 0.2038,-1.1639 0.3006,-1.5872 0.3881,-1.697 0.056,-0.071 0.724,-0.091 2.8901,-0.091 h 2.8172 l 0.077,0.2006 c 0.043,0.1105 0.3396,1.6297 0.6605,3.376 0.3209,1.7464 0.652,3.5485 0.7359,4.0045 0.1628,0.8848 0.131,1.1236 -0.1622,1.2161 -0.1871,0.059 -0.5018,-0.036 -0.5761,-0.1743 -0.063,-0.1161 -0.9309,-4.6719 -1.2683,-6.652 l -0.1677,-0.9854 -2.1422,-0.02 -2.1423,-0.02 -0.042,0.2383 c -0.023,0.1311 -0.1923,1.0593 -0.377,2.063 -0.1848,1.0036 -0.3823,2.084 -0.4392,2.4007 -0.1963,1.0939 -1.2859,6.9498 -1.6841,9.0509 -0.3685,1.9446 -0.4377,2.3803 -0.3773,2.3803 0.012,0 0.3035,-0.1127 0.6469,-0.2505 0.6316,-0.2534 1.365,-0.4561 2.3017,-0.6361 0.7348,-0.1412 3.6335,-0.1253 4.3492,0.024 0.2938,0.061 0.5466,0.091 0.5618,0.067 0.029,-0.047 0.2166,-0.7393 0.6641,-2.4521 0.2996,-1.1474 0.9648,-3.6201 1.2861,-4.7811 0.6701,-2.421 0.9596,-3.5988 0.8977,-3.6527 -0.03,-0.027 -0.2126,-0.091 -0.4041,-0.1415 -0.3813,-0.1019 -0.3839,-0.1076 -0.3587,-0.7679 0.029,-0.7577 0.2484,-2.994 0.3095,-3.154 0.079,-0.2049 0.2151,-0.2092 0.9656,-0.03 0.409,0.099 0.5847,0.1124 0.6278,0.054 0.033,-0.045 0.1207,-0.3275 0.1949,-0.6286 0.269,-1.0906 0.4121,-1.2741 0.8532,-1.0923 0.3567,0.1469 0.35,0.443 -0.038,1.6927 -0.059,0.1897 -0.082,0.3603 -0.051,0.3791 0.03,0.019 0.2978,0.1011 0.5935,0.1827 0.5452,0.1504 0.8098,0.3115 0.8098,0.4936 0,0.2879 -1.4794,3.3417 -1.6505,3.407 -0.066,0.025 -0.2708,0.011 -0.4564,-0.03 -0.1857,-0.042 -0.3619,-0.049 -0.3917,-0.018 -0.029,0.032 -0.2424,0.7638 -0.473,1.6269 -0.2307,0.8632 -0.564,2.1114 -0.7408,2.7738 -0.1769,0.6624 -0.3218,1.3001 -0.3221,1.4175 -6e-4,0.2119 0.44,2.7456 0.9145,5.2611 0.4711,2.4987 1.1389,6.2717 1.1391,6.4365 0,0.047 -0.052,0.1376 -0.1153,0.2006 -0.1031,0.1026 -0.8456,0.1147 -7.074,0.1147 -6.2286,0 -6.9712,-0.012 -7.0742,-0.1147 z m 13.213,-0.9985 c -0.059,-0.2466 -0.3876,-2.0128 -0.5663,-3.0474 -0.087,-0.5017 -0.2021,-0.982 -0.2565,-1.0674 -0.1776,-0.2793 -1.8111,-0.8781 -3.1884,-1.1692 -0.9691,-0.2047 -3.4377,-0.186 -4.4581,0.034 -1.0904,0.235 -2.8461,0.8791 -2.979,1.0932 -0.021,0.034 -0.2019,0.9291 -0.4027,1.991 -0.201,1.0619 -0.3881,2.0206 -0.4158,2.1304 l -0.051,0.1998 h 6.1785 6.1782 z m -1.0034,-5.4014 c 0,-0.07 -0.4555,-2.4955 -0.5205,-2.7734 -0.044,-0.1909 -0.108,-0.3468 -0.1412,-0.3468 -0.033,0 -0.1116,0.2216 -0.1745,0.4925 -0.062,0.2713 -0.2125,0.854 -0.3325,1.2955 -0.1199,0.4415 -0.195,0.825 -0.1667,0.8523 0.1297,0.1246 1.3355,0.558 1.3354,0.4799 z m 2.1654,-12.7735 c 0.1126,-0.2508 0.3025,-0.6607 0.4219,-0.9108 0.1197,-0.2499 0.2011,-0.4962 0.1811,-0.5474 -0.035,-0.091 -1.7823,-0.5508 -1.8457,-0.4878 -0.067,0.067 -0.1854,1.9972 -0.1259,2.0564 0.072,0.072 0.8658,0.329 1.0454,0.3392 0.077,0.01 0.1896,-0.1521 0.3232,-0.4496 z m -7.6675,10.5308 c -0.088,-0.056 -0.1151,-0.29 -0.1351,-1.1668 l -0.025,-1.0977 h -0.3283 c -0.5708,0 -0.7273,-0.1995 -0.5406,-0.6885 0.062,-0.1604 0.1167,-0.1874 0.3853,-0.1884 0.1724,-7e-4 0.3557,-0.028 0.4072,-0.061 0.071,-0.045 0.088,-0.3547 0.073,-1.2929 l -0.021,-1.2338 -0.3668,-0.061 c -0.4897,-0.081 -0.579,-0.1778 -0.5142,-0.56 0.057,-0.3373 0.2144,-0.4413 0.6657,-0.4413 h 0.252 v -1.2772 -1.2774 h -0.3301 c -0.4343,0 -0.6598,-0.2036 -0.593,-0.5357 0.063,-0.313 0.2047,-0.4335 0.5339,-0.4539 0.1536,-0.01 0.304,-0.021 0.3342,-0.025 0.03,-0.01 0.055,-0.3997 0.055,-0.8788 0,-1.1408 0.092,-1.3879 0.5205,-1.3904 0.3781,0 0.4416,0.1767 0.4564,1.2873 l 0.014,1.0107 0.3836,0.022 c 0.4107,0.024 0.6067,0.1824 0.6067,0.4913 0,0.2769 -0.1693,0.4092 -0.5905,0.4602 l -0.3998,0.048 -0.021,1.2351 c -0.016,0.9396 0,1.2498 0.074,1.2946 0.052,0.033 0.2492,0.06 0.4394,0.061 0.3734,0 0.4978,0.1154 0.4978,0.4568 0,0.3074 -0.1712,0.4479 -0.5973,0.4905 l -0.3931,0.039 -0.02,1.2505 c -0.02,1.2461 -0.02,1.2501 0.1467,1.2946 0.092,0.025 0.284,0.045 0.4272,0.046 0.1432,7e-4 0.3001,0.041 0.3484,0.09 0.1256,0.125 0.1089,0.5382 -0.027,0.6737 -0.1168,0.1162 -0.1608,0.1265 -0.6182,0.1423 l -0.2568,0.01 -0.037,1.0795 c -0.04,1.1755 -0.057,1.2175 -0.4768,1.2175 -0.1211,0 -0.2696,-0.031 -0.3301,-0.07 z"
       style="fill:#a2afc1;fill-opacity:1;stroke-width:0.0731764"
       id="path1-36" />
  </g>
</svg>
