<?xml version="1.0" encoding="UTF-8" standalone="no"?>
<!-- Created with Inkscape (http://www.inkscape.org/) -->

<svg
   version="1.1"
   id="svg1"
   width="24.000488"
   height="24.000488"
   viewBox="0 0 24.000488 24.000488"
   xmlns="http://www.w3.org/2000/svg"
   xmlns:svg="http://www.w3.org/2000/svg">
  <defs
     id="defs1" />
  <g
     id="g1"
     transform="translate(-1523.9546,-1524)">
    <rect
       style="fill:#ff0000;fill-opacity:0;stroke-width:0.0606413"
       id="rect7"
       width="23.908499"
       height="24"
       x="1523.9999"
       y="1524" />
    <path
       d="m 1535.5667,1547.8799 c -0.1085,-0.109 -0.1232,-0.5688 -0.1232,-3.8659 v -3.7421 l -0.9995,0.038 c -1.3395,0.05 -3.228,-0.058 -4.3317,-0.2486 -2.3617,-0.4077 -4.2027,-1.2813 -5.1773,-2.4569 -1.6997,-2.0503 -1.1727,-4.4459 1.4519,-6.5984 1.9578,-1.6057 5.078,-2.9118 8.2726,-3.463 0.2804,-0.048 0.5714,-0.1062 0.6469,-0.1285 0.1246,-0.037 0.1371,-0.1816 0.1371,-1.5751 0,-0.9073 0.034,-1.5967 0.082,-1.6868 0.058,-0.1095 0.1648,-0.1522 0.3799,-0.1522 0.5247,0 0.5517,0.083 0.576,1.7687 l 0.022,1.4848 2.1559,0.011 c 2.4819,0.013 3.279,0.12 4.9248,0.6625 3.1737,1.0462 4.6438,2.7592 4.3293,5.0448 -0.2544,1.8487 -1.9517,3.6595 -4.7974,5.1178 -1.5914,0.8156 -3.732,1.5313 -5.515,1.8439 -0.4313,0.075 -0.8624,0.168 -0.9583,0.2053 l -0.1742,0.068 -0.022,3.8225 c -0.019,3.296 -0.038,3.8328 -0.1394,3.8972 -0.1835,0.1164 -0.6031,0.09 -0.7392,-0.046 z m 0.2909,-8.7362 c 3.4525,-0.4285 6.6683,-1.6035 8.798,-3.2147 1.5313,-1.1584 2.3809,-2.5094 2.2984,-3.6547 -0.043,-0.5926 -0.4119,-1.3707 -0.8673,-1.8277 -0.9129,-0.9165 -2.7517,-1.683 -4.8023,-2.002 -0.978,-0.1522 -3.1412,-0.2272 -4.0768,-0.1414 l -0.7056,0.065 -0.025,0.3909 c -0.032,0.5073 0.082,0.5929 0.7866,0.5929 0.8277,0 2.7702,0.2217 3.5108,0.4007 0.3665,0.089 1.0577,0.3512 1.5359,0.5835 0.7012,0.3406 0.9464,0.5068 1.2657,0.8574 0.6327,0.6949 0.7662,1.0408 0.7623,1.9754 0,0.6953 -0.027,0.8328 -0.2105,1.1804 -0.5159,0.9799 -1.6884,2.0315 -3.012,2.7013 -2.0562,1.0408 -4.1367,1.5092 -6.7028,1.5092 -1.4285,0 -2.1845,-0.087 -3.1552,-0.3622 -2.8092,-0.797 -3.9859,-2.6888 -2.9254,-4.7033 0.7113,-1.3512 2.2949,-2.3903 5.3468,-3.5088 0.8624,-0.316 1.6121,-0.5868 1.666,-0.6017 0.1174,-0.033 0.1365,-0.7857 0.022,-0.8569 -0.1041,-0.065 -2.2217,0.3799 -3.1382,0.6586 -4.59,1.396 -7.5978,4.0639 -7.2166,6.4014 0.097,0.5936 0.3738,1.0504 0.9856,1.6249 1.2434,1.1676 3.3173,1.8667 6.1919,2.0872 0.6669,0.051 2.6977,-0.034 3.6676,-0.1551 z m 1.0755,-1.8039 c 0.8979,-0.1627 2.3455,-0.5928 3.0969,-0.9203 1.4171,-0.6175 2.7036,-1.6386 3.126,-2.481 0.6404,-1.277 -0.2355,-2.4632 -2.2589,-3.0595 -0.6276,-0.1849 -0.9064,-0.2297 -0.9064,-0.1456 0,0.024 0.038,0.1975 0.086,0.3853 0.074,0.2928 0.063,0.393 -0.074,0.7025 -0.2348,0.5328 -0.5222,0.8733 -1.0134,1.2006 -2.22,1.4792 -5.9027,1.4435 -6.8984,-0.066 -0.1313,-0.1991 -0.2081,-0.4319 -0.2175,-0.6592 -0.01,-0.1932 -0.037,-0.3733 -0.063,-0.4002 -0.091,-0.091 -1.3316,0.7185 -1.8546,1.2093 -0.6013,0.5644 -0.9285,1.1143 -0.9942,1.6714 -0.061,0.5133 0.2309,1.1425 0.7127,1.5389 0.6091,0.5009 2.0215,1.0338 3.1036,1.1708 0.6515,0.082 3.4328,-0.015 4.1552,-0.1462 z m -0.3199,-4.406 c 0.8005,-0.169 1.5061,-0.5179 2.0046,-0.9911 0.5051,-0.4797 0.5547,-0.7155 0.2166,-1.0321 -0.1187,-0.111 -0.2863,-0.2369 -0.3724,-0.2797 -0.2272,-0.1129 -1.3645,-0.2785 -1.684,-0.2453 -0.2547,0.026 -0.2764,0.051 -0.3309,0.3738 -0.032,0.1899 -0.078,0.3649 -0.1014,0.3886 -0.024,0.024 -0.2072,0.046 -0.4077,0.048 -0.3521,0.01 -0.367,-0.01 -0.4356,-0.2705 -0.039,-0.1515 -0.1006,-0.3061 -0.1367,-0.3435 -0.083,-0.086 -1.0156,0.2118 -1.518,0.4852 -0.4491,0.2443 -0.9914,0.832 -0.9914,1.0744 0,0.2482 0.3991,0.5935 0.8778,0.7594 0.5319,0.1844 2.0773,0.202 2.8791,0.033 z"
       style="fill:#a2afc1;fill-opacity:1;stroke-width:0.0785498"
       id="path1-22" />
  </g>
</svg>
