<?xml version="1.0" encoding="UTF-8" standalone="no"?>
<!-- Created with Inkscape (http://www.inkscape.org/) -->

<svg
   version="1.1"
   id="svg1"
   width="24.000122"
   height="24"
   viewBox="0 0 24.000122 24"
   xmlns="http://www.w3.org/2000/svg"
   xmlns:svg="http://www.w3.org/2000/svg">
  <defs
     id="defs1" />
  <g
     id="g1"
     transform="translate(-1343.0323,-1344.7566)">
    <path
       d="m 1352.712,1366.3018 c -0.1197,-0.016 -0.5438,-0.065 -0.9426,-0.1087 -4.7507,-0.5203 -8.1933,-2.5216 -8.663,-5.036 -0.044,-0.2371 -0.074,-2.0256 -0.074,-4.4886 0,-4.5143 0.01,-4.5945 0.4539,-5.3959 0.2937,-0.5263 1.2626,-1.504 1.9025,-1.9197 2.0301,-1.3188 4.7328,-2.0481 7.9753,-2.1524 2.6183,-0.084 4.8835,0.2544 6.9735,1.0422 0.792,0.2986 1.9009,0.8376 2.2344,1.0862 0.1196,0.089 0.2762,0.184 0.348,0.2107 0.073,0.027 0.7633,-0.1171 1.5588,-0.3253 1.9677,-0.5151 2.3244,-0.595 2.4464,-0.5477 0.134,0.052 0.1462,0.7257 0.015,0.8342 -0.1355,0.1122 -1.2805,0.4322 -7.2322,2.0213 -5.4346,1.451 -5.4364,1.4516 -5.5622,1.7136 -0.3388,0.706 -1.4395,0.7928 -1.8312,0.1446 -0.1907,-0.3156 -0.1965,-0.8964 -0.012,-1.179 0.1894,-0.2898 0.3877,-0.4117 0.7482,-0.4598 0.2491,-0.033 0.383,0 0.6556,0.144 0.3154,0.171 0.3617,0.1778 0.5805,0.086 0.1308,-0.055 0.8738,-0.2658 1.6512,-0.4681 0.7774,-0.2022 2.2454,-0.5963 3.2622,-0.8756 1.0169,-0.2794 1.9768,-0.5372 2.1333,-0.5729 0.1564,-0.036 0.2947,-0.097 0.3072,-0.1367 0.022,-0.069 -1.2094,-0.6029 -2.1142,-0.9168 -2.293,-0.7955 -5.9252,-1.0381 -8.6581,-0.5783 -3.3251,0.5593 -5.6609,1.7828 -6.5676,3.4399 -0.1988,0.3633 -0.2175,0.4575 -0.2175,1.0926 0,0.6352 0.019,0.7292 0.2175,1.0923 1.1113,2.0298 4.7366,3.5092 8.9179,3.639 4.1621,0.1293 7.761,-0.8462 9.6249,-2.6086 0.6891,-0.6517 0.9667,-1.1242 1.0749,-1.8301 0.093,-0.6087 0.2343,-0.8047 0.5784,-0.8047 0.44,0 0.4311,-0.093 0.4311,4.4711 0,4.0091 -0.01,4.1625 -0.1528,4.6449 -0.679,2.2184 -3.7432,3.9724 -7.9851,4.5708 -0.9664,0.1363 -3.538,0.2447 -4.0789,0.1719 z m 0.7794,-3.978 c -0.01,-1.6271 -0.018,-3.0979 -0.018,-3.2685 v -0.3102 l -0.3807,-0.04 c -0.2093,-0.022 -0.7721,-0.075 -1.2507,-0.119 -1.436,-0.1308 -3.1144,-0.4956 -4.2296,-0.9191 -0.2553,-0.097 -0.4765,-0.1763 -0.4917,-0.1763 -0.015,0 -0.028,1.4609 -0.028,3.2465 v 3.2464 l 0.3806,0.1656 c 1.5621,0.6795 4.0635,1.183 5.6734,1.1419 l 0.3625,-0.01 z m 3.7158,2.7388 c 1.7364,-0.3122 3.5224,-0.8719 3.67,-1.1501 0.086,-0.1626 0.063,-6.3007 -0.024,-6.3885 -0.029,-0.029 -0.159,0 -0.2901,0.061 -0.3223,0.1528 -1.6049,0.52 -2.4558,0.7031 -0.7295,0.157 -2.0109,0.3326 -3.0207,0.4139 l -0.5982,0.048 v 3.2938 3.2939 l 0.8882,-0.053 c 0.4885,-0.029 1.3123,-0.1289 1.8307,-0.2222 z m -11.093,-4.903 c 0,-3.0413 0,-3.1273 -0.145,-3.228 -0.08,-0.057 -0.3501,-0.2377 -0.6008,-0.4017 -0.2507,-0.1641 -0.6305,-0.4594 -0.844,-0.6563 -0.2135,-0.1968 -0.408,-0.3579 -0.4323,-0.3579 -0.024,0 -0.044,1.2622 -0.044,2.8048 v 2.8049 l 0.231,0.4689 c 0.2405,0.4883 0.8561,1.1728 1.4314,1.5916 0.1766,0.1285 0.3397,0.2032 0.3625,0.166 0.023,-0.037 0.042,-1.4738 0.042,-3.1923 z m 16.136,3.0722 c 0.4995,-0.3696 1.2185,-1.1514 1.4336,-1.5586 l 0.2203,-0.417 0.011,-2.8154 c 0.01,-1.5484 0.01,-2.8635 0,-2.9224 0,-0.064 -0.1503,0.037 -0.364,0.2489 -0.197,0.1957 -0.6456,0.5578 -0.997,0.8047 l -0.6388,0.4489 -0.019,3.1979 c -0.01,1.7588 0.01,3.1978 0.04,3.1978 0.033,0 0.1715,-0.083 0.3089,-0.1848 z"
       style="fill:#a2afc1;fill-opacity:1;stroke-width:0.0728289"
       id="path1-1" />
    <rect
       style="fill:#a2afc1;fill-opacity:0;stroke-width:0.0624664"
       id="rect1"
       width="23.785608"
       height="24"
       x="1343.14"
       y="1344.7566" />
  </g>
</svg>
