<?xml version="1.0" encoding="UTF-8" standalone="no"?>
<!-- Created with Inkscape (http://www.inkscape.org/) -->

<svg
   version="1.1"
   id="svg1"
   width="24"
   height="24"
   viewBox="0 0 24 24"
   xmlns="http://www.w3.org/2000/svg"
   xmlns:svg="http://www.w3.org/2000/svg">
  <defs
     id="defs1" />
  <g
     id="g1"
     transform="translate(-1523.9746,-1524)">
    <rect
       style="fill:#ff0000;fill-opacity:0;stroke-width:0.060693"
       id="rect5"
       width="23.949327"
       height="24"
       x="1524"
       y="1524" />
    <path
       d="m 1527.9668,1542.0476 c -0.6933,-0.1012 -1.4176,-0.422 -1.7977,-0.7961 -0.3062,-0.3014 -0.422,-0.5725 -0.6991,-1.6357 -0.4863,-1.867 -1.2079,-4.5771 -1.3071,-4.9092 -0.1697,-0.5688 -0.2264,-1.0326 -0.163,-1.3341 0.3135,-1.4899 2.5357,-2.9256 5.2157,-3.3697 0.5812,-0.096 1.8505,-0.1095 2.3606,-0.024 1.0647,0.1773 1.905,0.7141 2.1516,1.3744 0.053,0.14 0.2216,0.7405 0.3764,1.3345 0.3854,1.4779 0.9511,3.6101 1.0625,4.0044 0.2293,0.8107 0.3718,1.4398 0.3718,1.642 0,0.2954 -0.1522,0.7292 -0.3805,1.0838 -0.7905,1.2294 -2.8755,2.3112 -5.0291,2.6096 -0.5605,0.078 -1.6977,0.089 -2.1621,0.021 z m 1.9687,-0.6007 c 0.2176,-0.027 0.499,-0.075 0.6254,-0.108 0.1981,-0.051 0.229,-0.074 0.2249,-0.1717 0,-0.062 -0.1018,-0.4779 -0.2205,-0.9247 -0.1188,-0.4468 -0.2577,-0.969 -0.3087,-1.1604 -0.094,-0.3513 -0.7916,-2.955 -0.8963,-3.3423 -0.066,-0.2453 -0.03,-0.2401 -0.8291,-0.1209 -0.3287,0.049 -0.8308,0.082 -1.2634,0.084 -0.3947,0 -0.7263,0.017 -0.737,0.034 -0.011,0.017 0.1477,0.6463 0.3518,1.398 0.2041,0.7518 0.5441,2.0245 0.7555,2.8283 0.3543,1.3463 0.3933,1.4639 0.4947,1.4925 0.1776,0.05 1.3728,0.044 1.8027,-0.01 z m -2.6168,-0.3151 c -0.036,-0.1134 -0.4737,-1.7571 -0.9725,-3.6513 -0.5519,-2.0957 -0.4712,-1.8876 -0.7703,-1.9848 -0.1382,-0.045 -0.3207,-0.1145 -0.4056,-0.1548 -0.085,-0.04 -0.1658,-0.062 -0.1797,-0.047 -0.014,0.014 0,0.1046 0.021,0.2012 0.026,0.097 0.1966,0.7502 0.3797,1.4523 0.1832,0.7021 0.3723,1.4236 0.4203,1.6035 0.048,0.1799 0.1409,0.535 0.2065,0.7892 0.2474,0.958 0.3452,1.2241 0.5223,1.4204 0.2905,0.3223 0.8466,0.5881 0.7781,0.372 z m 4.7224,-0.227 c 0.7224,-0.2842 1.6529,-0.797 1.8263,-1.0063 0.068,-0.081 0.064,-0.098 -0.5375,-2.3484 -0.2695,-1.0084 -0.5794,-2.1721 -0.6885,-2.5858 -0.1093,-0.4138 -0.2121,-0.7743 -0.2286,-0.801 -0.019,-0.03 -0.1057,0 -0.23,0.09 -0.3562,0.2456 -1.1561,0.647 -1.6978,0.852 -0.4084,0.1546 -0.5314,0.2209 -0.5418,0.2922 -0.01,0.051 0.093,0.4985 0.2231,0.9952 0.1301,0.4966 0.2774,1.0595 0.3272,1.251 0.05,0.1915 0.2805,1.0535 0.5131,1.9157 0.4007,1.4855 0.428,1.5662 0.5203,1.5389 0.054,-0.016 0.285,-0.1026 0.5142,-0.1928 z m 2.5617,-1.7183 c 0.2131,-0.3031 0.2988,-0.5393 0.2981,-0.8219 -6e-4,-0.2925 -0.084,-0.6363 -0.8138,-3.3675 -0.2149,-0.8042 -0.4154,-1.5819 -0.4456,-1.7283 -0.03,-0.1463 -0.069,-0.2748 -0.087,-0.2853 -0.032,-0.02 -0.5524,0.5823 -0.5915,0.6846 -0.021,0.053 0.2916,1.2771 0.9118,3.5804 0.048,0.1787 0.1819,0.6905 0.2973,1.1373 0.1155,0.4467 0.2192,0.8384 0.2305,0.8703 0.033,0.092 0.1028,0.068 0.1996,-0.07 z m -6.3831,-4.1393 c 0.3694,-0.048 0.8071,-0.1219 0.9727,-0.1638 2.2157,-0.5618 3.9329,-1.8092 4.0182,-2.9186 0.074,-0.9673 -1.341,-1.5844 -3.266,-1.4241 -1.93,0.1607 -3.6502,0.8561 -4.6856,1.8941 -0.3966,0.3975 -0.6987,0.9187 -0.6987,1.2054 0,0.6752 0.6576,1.2188 1.6675,1.3785 0.8785,0.1389 1.1179,0.1423 1.9919,0.029 z m 13.3173,6.9329 c -1.2228,-0.2115 -2.59,-0.7461 -3.493,-1.3659 -0.5385,-0.3696 -1.1357,-0.9933 -1.3558,-1.4162 -0.1876,-0.3602 -0.2899,-0.8134 -0.2434,-1.0794 0.029,-0.1638 0.5662,-2.1971 1.0157,-3.841 0.1115,-0.4085 0.3203,-1.1997 0.4638,-1.7583 0.1436,-0.5586 0.3106,-1.1281 0.3713,-1.2658 0.1535,-0.3475 0.5248,-0.7049 0.9492,-0.9136 1.2281,-0.6037 3.1408,-0.5859 5.0473,0.047 1.7817,0.5914 3.034,1.4948 3.5317,2.5481 0.1389,0.294 0.1518,0.3592 0.1508,0.7625 0,0.3914 -0.03,0.5481 -0.2636,1.3926 -0.1445,0.5233 -0.5239,1.9352 -0.843,3.1373 -0.3193,1.2022 -0.6268,2.3093 -0.6835,2.4603 -0.1892,0.5035 -0.7079,0.9211 -1.4584,1.1743 -0.7944,0.2679 -2.0532,0.3146 -3.1891,0.1182 z m 2.3596,-0.5805 c 0.067,-0.071 0.111,-0.2211 0.6513,-2.2479 0.1905,-0.7149 0.4719,-1.7661 0.6254,-2.3361 0.1535,-0.57 0.2695,-1.0519 0.2578,-1.0708 -0.012,-0.019 -0.3403,-0.038 -0.7302,-0.044 -0.3898,-0.01 -0.9589,-0.043 -1.2647,-0.085 -0.7946,-0.1081 -0.7765,-0.1093 -0.8176,0.055 -0.2022,0.8021 -0.7059,2.7043 -1.2227,4.6177 -0.2986,1.1057 -0.3166,1.0322 0.2715,1.1101 0.2085,0.028 0.4417,0.059 0.5182,0.07 0.077,0.011 0.4785,0.014 0.8933,0.01 0.5822,-0.01 0.769,-0.026 0.8177,-0.077 z m 1.0354,-0.2709 c 0.3213,-0.1656 0.5421,-0.3596 0.6436,-0.5651 0.055,-0.1128 0.3536,-1.1555 0.6623,-2.3172 0.3086,-1.1616 0.6128,-2.2977 0.6759,-2.5246 0.064,-0.227 0.1041,-0.4235 0.091,-0.4367 -0.013,-0.014 -0.1024,0.012 -0.1982,0.055 -0.096,0.043 -0.2768,0.1049 -0.4022,0.137 -0.1251,0.032 -0.2431,0.089 -0.2621,0.1257 -0.041,0.081 -0.047,0.1007 -0.8565,3.1296 -0.3479,1.3011 -0.6428,2.3926 -0.6553,2.4254 -0.033,0.087 0.1029,0.073 0.3016,-0.029 z m -4.0473,-1.2576 c 0.1702,-0.651 0.5082,-1.9209 0.7513,-2.822 0.2432,-0.901 0.4322,-1.6635 0.4202,-1.6943 -0.012,-0.03 -0.2067,-0.1182 -0.4326,-0.1943 -0.476,-0.1604 -1.347,-0.582 -1.7671,-0.8557 -0.1962,-0.1277 -0.2978,-0.1706 -0.3117,-0.1316 -0.012,0.032 -0.091,0.3296 -0.1776,0.6615 -0.1494,0.575 -0.7402,2.7875 -1.1388,4.2644 -0.1429,0.53 -0.1749,0.711 -0.1378,0.7805 0.065,0.1225 0.5936,0.4593 1.1173,0.7127 0.5093,0.2464 1.2981,0.537 1.3387,0.4934 0.016,-0.017 0.1679,-0.5635 0.3381,-1.2146 z m -3.223,-0.9167 c 0.5899,-2.2289 1.2396,-4.6945 1.3048,-4.9517 l 0.081,-0.3213 -0.2553,-0.3053 c -0.1403,-0.168 -0.2742,-0.3261 -0.2973,-0.3515 -0.061,-0.066 -0.1195,0.048 -0.18,0.3479 -0.029,0.1404 -0.092,0.4015 -0.1403,0.5802 -0.2469,0.9044 -0.7349,2.7245 -0.9957,3.7135 -0.1449,0.5497 -0.1435,0.8312 0.01,1.1703 0.112,0.2535 0.2753,0.4776 0.3482,0.4776 0.018,0 0.076,-0.1619 0.1283,-0.3597 z m 8.299,-3.986 c 0.9987,-0.2519 1.436,-0.6363 1.436,-1.2618 0,-0.7302 -0.8639,-1.6453 -2.177,-2.306 -1.284,-0.646 -3.1103,-1.0055 -4.3883,-0.8638 -0.8361,0.093 -1.3366,0.2745 -1.7145,0.6224 -0.2596,0.239 -0.3359,0.4133 -0.3359,0.7665 0,0.5854 0.5252,1.2664 1.4545,1.8861 1.5837,1.0559 4.1051,1.5653 5.7252,1.1566 z"
       style="fill:#a2afc1;fill-opacity:1;stroke-width:0.0463703"
       id="path1-19" />
  </g>
</svg>
